<mxfile host="app.diagrams.net" modified="2021-03-24T01:10:14.321Z" agent="5.0 (Windows NT 10.0; Win64; x64) AppleWebKit/537.36 (KHTML, like Gecko) Chrome/89.0.4389.90 Safari/537.36" etag="Pg5Zl3OfiCK3vnpW7hSP" version="14.4.9" type="github">
  <diagram id="-mIEmtDpmcr0Wm0IPF2-" name="Page-1">
    <mxGraphModel dx="2370" dy="1270" grid="1" gridSize="10" guides="1" tooltips="1" connect="1" arrows="1" fold="1" page="1" pageScale="1" pageWidth="1800" pageHeight="1600" math="0" shadow="0">
      <root>
        <mxCell id="0" />
        <mxCell id="1" parent="0" />
        <mxCell id="JPcZrM7MTuREyfRBJGFF-1" value="InputForm" style="swimlane;fontStyle=1;align=center;verticalAlign=top;childLayout=stackLayout;horizontal=1;startSize=26;horizontalStack=0;resizeParent=1;resizeParentMax=0;resizeLast=0;collapsible=1;marginBottom=0;fontSize=14;" vertex="1" parent="1">
          <mxGeometry x="140" y="30" width="350" height="268" as="geometry" />
        </mxCell>
        <mxCell id="JPcZrM7MTuREyfRBJGFF-2" value="-Edit: EditAlarm" style="text;strokeColor=none;fillColor=none;align=left;verticalAlign=top;spacingLeft=4;spacingRight=4;overflow=hidden;rotatable=0;points=[[0,0.5],[1,0.5]];portConstraint=eastwest;" vertex="1" parent="JPcZrM7MTuREyfRBJGFF-1">
          <mxGeometry y="26" width="350" height="26" as="geometry" />
        </mxCell>
        <mxCell id="JPcZrM7MTuREyfRBJGFF-3" value="-Stop: StopSnoozeAlarm" style="text;strokeColor=none;fillColor=none;align=left;verticalAlign=top;spacingLeft=4;spacingRight=4;overflow=hidden;rotatable=0;points=[[0,0.5],[1,0.5]];portConstraint=eastwest;" vertex="1" parent="JPcZrM7MTuREyfRBJGFF-1">
          <mxGeometry y="52" width="350" height="26" as="geometry" />
        </mxCell>
        <mxCell id="JPcZrM7MTuREyfRBJGFF-4" value="-Snooze: StopSnoozeAlarm" style="text;strokeColor=none;fillColor=none;align=left;verticalAlign=top;spacingLeft=4;spacingRight=4;overflow=hidden;rotatable=0;points=[[0,0.5],[1,0.5]];portConstraint=eastwest;" vertex="1" parent="JPcZrM7MTuREyfRBJGFF-1">
          <mxGeometry y="78" width="350" height="26" as="geometry" />
        </mxCell>
        <mxCell id="JPcZrM7MTuREyfRBJGFF-5" value="" style="line;strokeWidth=1;fillColor=none;align=left;verticalAlign=middle;spacingTop=-1;spacingLeft=3;spacingRight=3;rotatable=0;labelPosition=right;points=[];portConstraint=eastwest;" vertex="1" parent="JPcZrM7MTuREyfRBJGFF-1">
          <mxGeometry y="104" width="350" height="8" as="geometry" />
        </mxCell>
        <mxCell id="JPcZrM7MTuREyfRBJGFF-6" value="+ Alarm501(InputHandler)" style="text;strokeColor=none;fillColor=none;align=left;verticalAlign=top;spacingLeft=4;spacingRight=4;overflow=hidden;rotatable=0;points=[[0,0.5],[1,0.5]];portConstraint=eastwest;" vertex="1" parent="JPcZrM7MTuREyfRBJGFF-1">
          <mxGeometry y="112" width="350" height="26" as="geometry" />
        </mxCell>
        <mxCell id="JPcZrM7MTuREyfRBJGFF-7" value="- btnPlus_Click(object, EventArgs): void" style="text;strokeColor=none;fillColor=none;align=left;verticalAlign=top;spacingLeft=4;spacingRight=4;overflow=hidden;rotatable=0;points=[[0,0.5],[1,0.5]];portConstraint=eastwest;" vertex="1" parent="JPcZrM7MTuREyfRBJGFF-1">
          <mxGeometry y="138" width="350" height="26" as="geometry" />
        </mxCell>
        <mxCell id="JPcZrM7MTuREyfRBJGFF-8" value="- btnEdit_Click(object, EventArgs): void" style="text;strokeColor=none;fillColor=none;align=left;verticalAlign=top;spacingLeft=4;spacingRight=4;overflow=hidden;rotatable=0;points=[[0,0.5],[1,0.5]];portConstraint=eastwest;" vertex="1" parent="JPcZrM7MTuREyfRBJGFF-1">
          <mxGeometry y="164" width="350" height="26" as="geometry" />
        </mxCell>
        <mxCell id="JPcZrM7MTuREyfRBJGFF-9" value="- btnSnooze_Click(object, EventArgs): void" style="text;strokeColor=none;fillColor=none;align=left;verticalAlign=top;spacingLeft=4;spacingRight=4;overflow=hidden;rotatable=0;points=[[0,0.5],[1,0.5]];portConstraint=eastwest;" vertex="1" parent="JPcZrM7MTuREyfRBJGFF-1">
          <mxGeometry y="190" width="350" height="26" as="geometry" />
        </mxCell>
        <mxCell id="JPcZrM7MTuREyfRBJGFF-10" value="- btnStop_Click(object, EventArgs): void" style="text;strokeColor=none;fillColor=none;align=left;verticalAlign=top;spacingLeft=4;spacingRight=4;overflow=hidden;rotatable=0;points=[[0,0.5],[1,0.5]];portConstraint=eastwest;" vertex="1" parent="JPcZrM7MTuREyfRBJGFF-1">
          <mxGeometry y="216" width="350" height="26" as="geometry" />
        </mxCell>
        <mxCell id="JPcZrM7MTuREyfRBJGFF-11" value="- listBox_SelectedIndexChanged(object, EventArgs): void" style="text;strokeColor=none;fillColor=none;align=left;verticalAlign=top;spacingLeft=4;spacingRight=4;overflow=hidden;rotatable=0;points=[[0,0.5],[1,0.5]];portConstraint=eastwest;" vertex="1" parent="JPcZrM7MTuREyfRBJGFF-1">
          <mxGeometry y="242" width="350" height="26" as="geometry" />
        </mxCell>
        <mxCell id="JPcZrM7MTuREyfRBJGFF-12" value="OutputForm" style="swimlane;fontStyle=1;align=center;verticalAlign=top;childLayout=stackLayout;horizontal=1;startSize=26;horizontalStack=0;resizeParent=1;resizeParentMax=0;resizeLast=0;collapsible=1;marginBottom=0;fontSize=15;" vertex="1" parent="1">
          <mxGeometry x="230" y="310" width="260" height="104" as="geometry" />
        </mxCell>
        <mxCell id="JPcZrM7MTuREyfRBJGFF-13" value="+ updateLables(string, string): void" style="text;strokeColor=none;fillColor=none;align=left;verticalAlign=top;spacingLeft=4;spacingRight=4;overflow=hidden;rotatable=0;points=[[0,0.5],[1,0.5]];portConstraint=eastwest;" vertex="1" parent="JPcZrM7MTuREyfRBJGFF-12">
          <mxGeometry y="26" width="260" height="26" as="geometry" />
        </mxCell>
        <mxCell id="JPcZrM7MTuREyfRBJGFF-14" value="+ AlarmGoesOff(Timer): void" style="text;strokeColor=none;fillColor=none;align=left;verticalAlign=top;spacingLeft=4;spacingRight=4;overflow=hidden;rotatable=0;points=[[0,0.5],[1,0.5]];portConstraint=eastwest;" vertex="1" parent="JPcZrM7MTuREyfRBJGFF-12">
          <mxGeometry y="52" width="260" height="26" as="geometry" />
        </mxCell>
        <mxCell id="JPcZrM7MTuREyfRBJGFF-15" value="+ UpdateList(List&lt;Timer&gt;): void" style="text;strokeColor=none;fillColor=none;align=left;verticalAlign=top;spacingLeft=4;spacingRight=4;overflow=hidden;rotatable=0;points=[[0,0.5],[1,0.5]];portConstraint=eastwest;" vertex="1" parent="JPcZrM7MTuREyfRBJGFF-12">
          <mxGeometry y="78" width="260" height="26" as="geometry" />
        </mxCell>
        <mxCell id="JPcZrM7MTuREyfRBJGFF-16" value="Timer" style="swimlane;fontStyle=1;align=center;verticalAlign=top;childLayout=stackLayout;horizontal=1;startSize=26;horizontalStack=0;resizeParent=1;resizeParentMax=0;resizeLast=0;collapsible=1;marginBottom=0;fontSize=14;" vertex="1" parent="1">
          <mxGeometry x="1100" y="20" width="260" height="372" as="geometry" />
        </mxCell>
        <mxCell id="JPcZrM7MTuREyfRBJGFF-17" value="- myTimer: System.Windows.Forms.Timer" style="text;strokeColor=none;fillColor=none;align=left;verticalAlign=top;spacingLeft=4;spacingRight=4;overflow=hidden;rotatable=0;points=[[0,0.5],[1,0.5]];portConstraint=eastwest;" vertex="1" parent="JPcZrM7MTuREyfRBJGFF-16">
          <mxGeometry y="26" width="260" height="26" as="geometry" />
        </mxCell>
        <mxCell id="JPcZrM7MTuREyfRBJGFF-18" value="+ Time: string" style="text;strokeColor=none;fillColor=none;align=left;verticalAlign=top;spacingLeft=4;spacingRight=4;overflow=hidden;rotatable=0;points=[[0,0.5],[1,0.5]];portConstraint=eastwest;" vertex="1" parent="JPcZrM7MTuREyfRBJGFF-16">
          <mxGeometry y="52" width="260" height="26" as="geometry" />
        </mxCell>
        <mxCell id="JPcZrM7MTuREyfRBJGFF-19" value="+ snoozetime: double" style="text;strokeColor=none;fillColor=none;align=left;verticalAlign=top;spacingLeft=4;spacingRight=4;overflow=hidden;rotatable=0;points=[[0,0.5],[1,0.5]];portConstraint=eastwest;" vertex="1" parent="JPcZrM7MTuREyfRBJGFF-16">
          <mxGeometry y="78" width="260" height="26" as="geometry" />
        </mxCell>
        <mxCell id="JPcZrM7MTuREyfRBJGFF-20" value="+ state: TimerState" style="text;strokeColor=none;fillColor=none;align=left;verticalAlign=top;spacingLeft=4;spacingRight=4;overflow=hidden;rotatable=0;points=[[0,0.5],[1,0.5]];portConstraint=eastwest;" vertex="1" parent="JPcZrM7MTuREyfRBJGFF-16">
          <mxGeometry y="104" width="260" height="26" as="geometry" />
        </mxCell>
        <mxCell id="JPcZrM7MTuREyfRBJGFF-21" value="+ music: Songs" style="text;strokeColor=none;fillColor=none;align=left;verticalAlign=top;spacingLeft=4;spacingRight=4;overflow=hidden;rotatable=0;points=[[0,0.5],[1,0.5]];portConstraint=eastwest;" vertex="1" parent="JPcZrM7MTuREyfRBJGFF-16">
          <mxGeometry y="130" width="260" height="26" as="geometry" />
        </mxCell>
        <mxCell id="JPcZrM7MTuREyfRBJGFF-22" value="+ update: Update" style="text;strokeColor=none;fillColor=none;align=left;verticalAlign=top;spacingLeft=4;spacingRight=4;overflow=hidden;rotatable=0;points=[[0,0.5],[1,0.5]];portConstraint=eastwest;fontStyle=4" vertex="1" parent="JPcZrM7MTuREyfRBJGFF-16">
          <mxGeometry y="156" width="260" height="26" as="geometry" />
        </mxCell>
        <mxCell id="JPcZrM7MTuREyfRBJGFF-23" value="+ AWOL: AlarmWentOff" style="text;strokeColor=none;fillColor=none;align=left;verticalAlign=top;spacingLeft=4;spacingRight=4;overflow=hidden;rotatable=0;points=[[0,0.5],[1,0.5]];portConstraint=eastwest;fontStyle=4" vertex="1" parent="JPcZrM7MTuREyfRBJGFF-16">
          <mxGeometry y="182" width="260" height="26" as="geometry" />
        </mxCell>
        <mxCell id="JPcZrM7MTuREyfRBJGFF-24" value="" style="line;strokeWidth=1;fillColor=none;align=left;verticalAlign=middle;spacingTop=-1;spacingLeft=3;spacingRight=3;rotatable=0;labelPosition=right;points=[];portConstraint=eastwest;" vertex="1" parent="JPcZrM7MTuREyfRBJGFF-16">
          <mxGeometry y="208" width="260" height="8" as="geometry" />
        </mxCell>
        <mxCell id="JPcZrM7MTuREyfRBJGFF-25" value="+ Timer()" style="text;strokeColor=none;fillColor=none;align=left;verticalAlign=top;spacingLeft=4;spacingRight=4;overflow=hidden;rotatable=0;points=[[0,0.5],[1,0.5]];portConstraint=eastwest;" vertex="1" parent="JPcZrM7MTuREyfRBJGFF-16">
          <mxGeometry y="216" width="260" height="26" as="geometry" />
        </mxCell>
        <mxCell id="JPcZrM7MTuREyfRBJGFF-26" value="+ EditAlarm(DateTime, bool, double, int): void" style="text;strokeColor=none;fillColor=none;align=left;verticalAlign=top;spacingLeft=4;spacingRight=4;overflow=hidden;rotatable=0;points=[[0,0.5],[1,0.5]];portConstraint=eastwest;" vertex="1" parent="JPcZrM7MTuREyfRBJGFF-16">
          <mxGeometry y="242" width="260" height="26" as="geometry" />
        </mxCell>
        <mxCell id="JPcZrM7MTuREyfRBJGFF-27" value="+ setTimer(): void" style="text;strokeColor=none;fillColor=none;align=left;verticalAlign=top;spacingLeft=4;spacingRight=4;overflow=hidden;rotatable=0;points=[[0,0.5],[1,0.5]];portConstraint=eastwest;" vertex="1" parent="JPcZrM7MTuREyfRBJGFF-16">
          <mxGeometry y="268" width="260" height="26" as="geometry" />
        </mxCell>
        <mxCell id="JPcZrM7MTuREyfRBJGFF-28" value="- AlarmGoesOff(object, EventArgs): void" style="text;strokeColor=none;fillColor=none;align=left;verticalAlign=top;spacingLeft=4;spacingRight=4;overflow=hidden;rotatable=0;points=[[0,0.5],[1,0.5]];portConstraint=eastwest;" vertex="1" parent="JPcZrM7MTuREyfRBJGFF-16">
          <mxGeometry y="294" width="260" height="26" as="geometry" />
        </mxCell>
        <mxCell id="JPcZrM7MTuREyfRBJGFF-29" value="+ ToString(): string &lt;&lt;override&gt;&gt;" style="text;strokeColor=none;fillColor=none;align=left;verticalAlign=top;spacingLeft=4;spacingRight=4;overflow=hidden;rotatable=0;points=[[0,0.5],[1,0.5]];portConstraint=eastwest;" vertex="1" parent="JPcZrM7MTuREyfRBJGFF-16">
          <mxGeometry y="320" width="260" height="26" as="geometry" />
        </mxCell>
        <mxCell id="JPcZrM7MTuREyfRBJGFF-30" value="+ ToFile(): string" style="text;strokeColor=none;fillColor=none;align=left;verticalAlign=top;spacingLeft=4;spacingRight=4;overflow=hidden;rotatable=0;points=[[0,0.5],[1,0.5]];portConstraint=eastwest;" vertex="1" parent="JPcZrM7MTuREyfRBJGFF-16">
          <mxGeometry y="346" width="260" height="26" as="geometry" />
        </mxCell>
        <mxCell id="JPcZrM7MTuREyfRBJGFF-31" value="AddEdit_Alarm Input&#xa; " style="swimlane;fontStyle=1;align=center;verticalAlign=top;childLayout=stackLayout;horizontal=1;startSize=26;horizontalStack=0;resizeParent=1;resizeParentMax=0;resizeLast=0;collapsible=1;marginBottom=0;fontSize=14;" vertex="1" parent="1">
          <mxGeometry x="1040" y="851" width="260" height="138" as="geometry" />
        </mxCell>
        <mxCell id="JPcZrM7MTuREyfRBJGFF-32" value="- ET: EditTimer" style="text;strokeColor=none;fillColor=none;align=left;verticalAlign=top;spacingLeft=4;spacingRight=4;overflow=hidden;rotatable=0;points=[[0,0.5],[1,0.5]];portConstraint=eastwest;" vertex="1" parent="JPcZrM7MTuREyfRBJGFF-31">
          <mxGeometry y="26" width="260" height="26" as="geometry" />
        </mxCell>
        <mxCell id="JPcZrM7MTuREyfRBJGFF-33" value="" style="line;strokeWidth=1;fillColor=none;align=left;verticalAlign=middle;spacingTop=-1;spacingLeft=3;spacingRight=3;rotatable=0;labelPosition=right;points=[];portConstraint=eastwest;" vertex="1" parent="JPcZrM7MTuREyfRBJGFF-31">
          <mxGeometry y="52" width="260" height="8" as="geometry" />
        </mxCell>
        <mxCell id="JPcZrM7MTuREyfRBJGFF-34" value="+ AddEdit_Alarm(Timer, bool)" style="text;strokeColor=none;fillColor=none;align=left;verticalAlign=top;spacingLeft=4;spacingRight=4;overflow=hidden;rotatable=0;points=[[0,0.5],[1,0.5]];portConstraint=eastwest;" vertex="1" parent="JPcZrM7MTuREyfRBJGFF-31">
          <mxGeometry y="60" width="260" height="26" as="geometry" />
        </mxCell>
        <mxCell id="JPcZrM7MTuREyfRBJGFF-35" value="- btnSet_Click(object, EventArgs): void" style="text;strokeColor=none;fillColor=none;align=left;verticalAlign=top;spacingLeft=4;spacingRight=4;overflow=hidden;rotatable=0;points=[[0,0.5],[1,0.5]];portConstraint=eastwest;" vertex="1" parent="JPcZrM7MTuREyfRBJGFF-31">
          <mxGeometry y="86" width="260" height="26" as="geometry" />
        </mxCell>
        <mxCell id="JPcZrM7MTuREyfRBJGFF-36" value="- btnCancel_Click(object, EventArgs): void" style="text;strokeColor=none;fillColor=none;align=left;verticalAlign=top;spacingLeft=4;spacingRight=4;overflow=hidden;rotatable=0;points=[[0,0.5],[1,0.5]];portConstraint=eastwest;" vertex="1" parent="JPcZrM7MTuREyfRBJGFF-31">
          <mxGeometry y="112" width="260" height="26" as="geometry" />
        </mxCell>
        <mxCell id="JPcZrM7MTuREyfRBJGFF-37" value="Controller&#xa;" style="swimlane;fontStyle=1;align=center;verticalAlign=top;childLayout=stackLayout;horizontal=1;startSize=26;horizontalStack=0;resizeParent=1;resizeParentMax=0;resizeLast=0;collapsible=1;marginBottom=0;fontSize=14;" vertex="1" parent="1">
          <mxGeometry x="50" y="610" width="290" height="294" as="geometry" />
        </mxCell>
        <mxCell id="JPcZrM7MTuREyfRBJGFF-38" value="- newTimer: Timer" style="text;strokeColor=none;fillColor=none;align=left;verticalAlign=top;spacingLeft=4;spacingRight=4;overflow=hidden;rotatable=0;points=[[0,0.5],[1,0.5]];portConstraint=eastwest;" vertex="1" parent="JPcZrM7MTuREyfRBJGFF-37">
          <mxGeometry y="26" width="290" height="26" as="geometry" />
        </mxCell>
        <mxCell id="JPcZrM7MTuREyfRBJGFF-39" value="- Timers: List&lt;Timer&gt;" style="text;strokeColor=none;fillColor=none;align=left;verticalAlign=top;spacingLeft=4;spacingRight=4;overflow=hidden;rotatable=0;points=[[0,0.5],[1,0.5]];portConstraint=eastwest;" vertex="1" parent="JPcZrM7MTuREyfRBJGFF-37">
          <mxGeometry y="52" width="290" height="26" as="geometry" />
        </mxCell>
        <mxCell id="JPcZrM7MTuREyfRBJGFF-40" value="- loadingFile: bool" style="text;strokeColor=none;fillColor=none;align=left;verticalAlign=top;spacingLeft=4;spacingRight=4;overflow=hidden;rotatable=0;points=[[0,0.5],[1,0.5]];portConstraint=eastwest;" vertex="1" parent="JPcZrM7MTuREyfRBJGFF-37">
          <mxGeometry y="78" width="290" height="26" as="geometry" />
        </mxCell>
        <mxCell id="JPcZrM7MTuREyfRBJGFF-41" value="+ update: Update" style="text;strokeColor=none;fillColor=none;align=left;verticalAlign=top;spacingLeft=4;spacingRight=4;overflow=hidden;rotatable=0;points=[[0,0.5],[1,0.5]];portConstraint=eastwest;" vertex="1" parent="JPcZrM7MTuREyfRBJGFF-37">
          <mxGeometry y="104" width="290" height="26" as="geometry" />
        </mxCell>
        <mxCell id="JPcZrM7MTuREyfRBJGFF-42" value="+ updatelabels: UpdateScreen" style="text;strokeColor=none;fillColor=none;align=left;verticalAlign=top;spacingLeft=4;spacingRight=4;overflow=hidden;rotatable=0;points=[[0,0.5],[1,0.5]];portConstraint=eastwest;" vertex="1" parent="JPcZrM7MTuREyfRBJGFF-37">
          <mxGeometry y="130" width="290" height="26" as="geometry" />
        </mxCell>
        <mxCell id="JPcZrM7MTuREyfRBJGFF-43" value="" style="line;strokeWidth=1;fillColor=none;align=left;verticalAlign=middle;spacingTop=-1;spacingLeft=3;spacingRight=3;rotatable=0;labelPosition=right;points=[];portConstraint=eastwest;" vertex="1" parent="JPcZrM7MTuREyfRBJGFF-37">
          <mxGeometry y="156" width="290" height="8" as="geometry" />
        </mxCell>
        <mxCell id="JPcZrM7MTuREyfRBJGFF-44" value="+ Controller()" style="text;strokeColor=none;fillColor=none;align=left;verticalAlign=top;spacingLeft=4;spacingRight=4;overflow=hidden;rotatable=0;points=[[0,0.5],[1,0.5]];portConstraint=eastwest;" vertex="1" parent="JPcZrM7MTuREyfRBJGFF-37">
          <mxGeometry y="164" width="290" height="26" as="geometry" />
        </mxCell>
        <mxCell id="JPcZrM7MTuREyfRBJGFF-45" value="+ Edit(int):void" style="text;strokeColor=none;fillColor=none;align=left;verticalAlign=top;spacingLeft=4;spacingRight=4;overflow=hidden;rotatable=0;points=[[0,0.5],[1,0.5]];portConstraint=eastwest;" vertex="1" parent="JPcZrM7MTuREyfRBJGFF-37">
          <mxGeometry y="190" width="290" height="26" as="geometry" />
        </mxCell>
        <mxCell id="JPcZrM7MTuREyfRBJGFF-46" value="+ Snooze():void" style="text;strokeColor=none;fillColor=none;align=left;verticalAlign=top;spacingLeft=4;spacingRight=4;overflow=hidden;rotatable=0;points=[[0,0.5],[1,0.5]];portConstraint=eastwest;" vertex="1" parent="JPcZrM7MTuREyfRBJGFF-37">
          <mxGeometry y="216" width="290" height="26" as="geometry" />
        </mxCell>
        <mxCell id="JPcZrM7MTuREyfRBJGFF-47" value="+ Stop():void" style="text;strokeColor=none;fillColor=none;align=left;verticalAlign=top;spacingLeft=4;spacingRight=4;overflow=hidden;rotatable=0;points=[[0,0.5],[1,0.5]];portConstraint=eastwest;" vertex="1" parent="JPcZrM7MTuREyfRBJGFF-37">
          <mxGeometry y="242" width="290" height="26" as="geometry" />
        </mxCell>
        <mxCell id="JPcZrM7MTuREyfRBJGFF-48" value="+ Update(List&lt;Timer&gt;):void" style="text;strokeColor=none;fillColor=none;align=left;verticalAlign=top;spacingLeft=4;spacingRight=4;overflow=hidden;rotatable=0;points=[[0,0.5],[1,0.5]];portConstraint=eastwest;" vertex="1" parent="JPcZrM7MTuREyfRBJGFF-37">
          <mxGeometry y="268" width="290" height="26" as="geometry" />
        </mxCell>
        <mxCell id="JPcZrM7MTuREyfRBJGFF-49" value="«Delegate»&lt;br&gt;&lt;b&gt;UpdateScreen(string, string)&lt;/b&gt;" style="html=1;" vertex="1" parent="1">
          <mxGeometry x="153" y="465" width="230" height="60" as="geometry" />
        </mxCell>
        <mxCell id="JPcZrM7MTuREyfRBJGFF-50" value="«Delegate»&lt;br&gt;&lt;b&gt;AlarmWentOff(Timer)&lt;/b&gt;" style="html=1;" vertex="1" parent="1">
          <mxGeometry x="590" y="70" width="150" height="50" as="geometry" />
        </mxCell>
        <mxCell id="JPcZrM7MTuREyfRBJGFF-51" value="«Delegate»&lt;br&gt;&lt;b&gt;Update(List&amp;lt;Timer&amp;gt;)&lt;/b&gt;" style="html=1;" vertex="1" parent="1">
          <mxGeometry x="560" y="470" width="170" height="50" as="geometry" />
        </mxCell>
        <mxCell id="JPcZrM7MTuREyfRBJGFF-52" value="«Delegate»&lt;br&gt;&lt;b&gt;InputHandler(int)&lt;/b&gt;" style="html=1;" vertex="1" parent="1">
          <mxGeometry x="40" y="400" width="110" height="50" as="geometry" />
        </mxCell>
        <mxCell id="JPcZrM7MTuREyfRBJGFF-53" value="«Delegate»&lt;br&gt;&lt;b&gt;EditTimer(DateTime, bool, double, int)&lt;/b&gt;" style="html=1;" vertex="1" parent="1">
          <mxGeometry x="1045" y="730" width="250" height="70" as="geometry" />
        </mxCell>
        <mxCell id="JPcZrM7MTuREyfRBJGFF-54" value="«Enum»&#xa;TimerState" style="swimlane;fontStyle=0;childLayout=stackLayout;horizontal=1;startSize=42;fillColor=none;horizontalStack=0;resizeParent=1;resizeParentMax=0;resizeLast=0;collapsible=1;marginBottom=0;fontSize=14;" vertex="1" parent="1">
          <mxGeometry x="850" y="670" width="140" height="146" as="geometry" />
        </mxCell>
        <mxCell id="JPcZrM7MTuREyfRBJGFF-55" value="Initialized" style="text;strokeColor=none;fillColor=none;align=left;verticalAlign=top;spacingLeft=4;spacingRight=4;overflow=hidden;rotatable=0;points=[[0,0.5],[1,0.5]];portConstraint=eastwest;" vertex="1" parent="JPcZrM7MTuREyfRBJGFF-54">
          <mxGeometry y="42" width="140" height="26" as="geometry" />
        </mxCell>
        <mxCell id="JPcZrM7MTuREyfRBJGFF-56" value="OFF" style="text;strokeColor=none;fillColor=none;align=left;verticalAlign=top;spacingLeft=4;spacingRight=4;overflow=hidden;rotatable=0;points=[[0,0.5],[1,0.5]];portConstraint=eastwest;" vertex="1" parent="JPcZrM7MTuREyfRBJGFF-54">
          <mxGeometry y="68" width="140" height="26" as="geometry" />
        </mxCell>
        <mxCell id="JPcZrM7MTuREyfRBJGFF-57" value="ON" style="text;strokeColor=none;fillColor=none;align=left;verticalAlign=top;spacingLeft=4;spacingRight=4;overflow=hidden;rotatable=0;points=[[0,0.5],[1,0.5]];portConstraint=eastwest;" vertex="1" parent="JPcZrM7MTuREyfRBJGFF-54">
          <mxGeometry y="94" width="140" height="26" as="geometry" />
        </mxCell>
        <mxCell id="JPcZrM7MTuREyfRBJGFF-58" value="AlarmWentOff" style="text;strokeColor=none;fillColor=none;align=left;verticalAlign=top;spacingLeft=4;spacingRight=4;overflow=hidden;rotatable=0;points=[[0,0.5],[1,0.5]];portConstraint=eastwest;" vertex="1" parent="JPcZrM7MTuREyfRBJGFF-54">
          <mxGeometry y="120" width="140" height="26" as="geometry" />
        </mxCell>
        <mxCell id="JPcZrM7MTuREyfRBJGFF-59" value="«Enum»&#xa;Songs" style="swimlane;fontStyle=0;childLayout=stackLayout;horizontal=1;startSize=42;fillColor=none;horizontalStack=0;resizeParent=1;resizeParentMax=0;resizeLast=0;collapsible=1;marginBottom=0;fontSize=14;" vertex="1" parent="1">
          <mxGeometry x="1510" y="770" width="140" height="172" as="geometry" />
        </mxCell>
        <mxCell id="JPcZrM7MTuREyfRBJGFF-60" value="Radar = 0" style="text;strokeColor=none;fillColor=none;align=left;verticalAlign=top;spacingLeft=4;spacingRight=4;overflow=hidden;rotatable=0;points=[[0,0.5],[1,0.5]];portConstraint=eastwest;" vertex="1" parent="JPcZrM7MTuREyfRBJGFF-59">
          <mxGeometry y="42" width="140" height="26" as="geometry" />
        </mxCell>
        <mxCell id="JPcZrM7MTuREyfRBJGFF-61" value="Beacon = 1" style="text;strokeColor=none;fillColor=none;align=left;verticalAlign=top;spacingLeft=4;spacingRight=4;overflow=hidden;rotatable=0;points=[[0,0.5],[1,0.5]];portConstraint=eastwest;" vertex="1" parent="JPcZrM7MTuREyfRBJGFF-59">
          <mxGeometry y="68" width="140" height="26" as="geometry" />
        </mxCell>
        <mxCell id="JPcZrM7MTuREyfRBJGFF-62" value="Chimes = 2" style="text;strokeColor=none;fillColor=none;align=left;verticalAlign=top;spacingLeft=4;spacingRight=4;overflow=hidden;rotatable=0;points=[[0,0.5],[1,0.5]];portConstraint=eastwest;" vertex="1" parent="JPcZrM7MTuREyfRBJGFF-59">
          <mxGeometry y="94" width="140" height="26" as="geometry" />
        </mxCell>
        <mxCell id="JPcZrM7MTuREyfRBJGFF-63" value="Circuit = 3" style="text;strokeColor=none;fillColor=none;align=left;verticalAlign=top;spacingLeft=4;spacingRight=4;overflow=hidden;rotatable=0;points=[[0,0.5],[1,0.5]];portConstraint=eastwest;" vertex="1" parent="JPcZrM7MTuREyfRBJGFF-59">
          <mxGeometry y="120" width="140" height="26" as="geometry" />
        </mxCell>
        <mxCell id="JPcZrM7MTuREyfRBJGFF-64" value="Reflection = 4" style="text;strokeColor=none;fillColor=none;align=left;verticalAlign=top;spacingLeft=4;spacingRight=4;overflow=hidden;rotatable=0;points=[[0,0.5],[1,0.5]];portConstraint=eastwest;" vertex="1" parent="JPcZrM7MTuREyfRBJGFF-59">
          <mxGeometry y="146" width="140" height="26" as="geometry" />
        </mxCell>
        <mxCell id="JPcZrM7MTuREyfRBJGFF-65" value="" style="html=1;verticalAlign=bottom;endArrow=open;endFill=0;entryX=0;entryY=0.5;entryDx=0;entryDy=0;" edge="1" parent="1" target="JPcZrM7MTuREyfRBJGFF-62">
          <mxGeometry width="80" relative="1" as="geometry">
            <mxPoint x="1300" y="877" as="sourcePoint" />
            <mxPoint x="1010" y="940" as="targetPoint" />
          </mxGeometry>
        </mxCell>
        <mxCell id="JPcZrM7MTuREyfRBJGFF-66" value="" style="html=1;verticalAlign=bottom;endArrow=open;endFill=0;entryX=0.5;entryY=0;entryDx=0;entryDy=0;exitX=1;exitY=0.5;exitDx=0;exitDy=0;" edge="1" parent="1" target="JPcZrM7MTuREyfRBJGFF-59">
          <mxGeometry width="80" relative="1" as="geometry">
            <mxPoint x="1359.9999999999995" y="215" as="sourcePoint" />
            <mxPoint x="690" y="679.998" as="targetPoint" />
            <Array as="points" />
          </mxGeometry>
        </mxCell>
        <mxCell id="JPcZrM7MTuREyfRBJGFF-67" value="" style="html=1;verticalAlign=bottom;endArrow=open;endFill=0;entryX=0;entryY=0.5;entryDx=0;entryDy=0;exitX=1;exitY=0;exitDx=0;exitDy=0;" edge="1" parent="1" source="JPcZrM7MTuREyfRBJGFF-54" target="JPcZrM7MTuREyfRBJGFF-30">
          <mxGeometry width="80" relative="1" as="geometry">
            <mxPoint x="709.9999999999995" y="628" as="sourcePoint" />
            <mxPoint x="919.9999999999995" y="628" as="targetPoint" />
          </mxGeometry>
        </mxCell>
        <mxCell id="JPcZrM7MTuREyfRBJGFF-68" value="" style="html=1;verticalAlign=bottom;endArrow=none;endFill=0;entryX=1;entryY=0.5;entryDx=0;entryDy=0;exitX=0;exitY=0.5;exitDx=0;exitDy=0;startArrow=open;startFill=0;" edge="1" parent="1" source="JPcZrM7MTuREyfRBJGFF-56" target="JPcZrM7MTuREyfRBJGFF-45">
          <mxGeometry width="80" relative="1" as="geometry">
            <mxPoint x="469.99999999999955" y="628" as="sourcePoint" />
            <mxPoint x="679.9999999999995" y="628" as="targetPoint" />
            <Array as="points">
              <mxPoint x="690" y="751" />
              <mxPoint x="690" y="810" />
            </Array>
          </mxGeometry>
        </mxCell>
        <mxCell id="JPcZrM7MTuREyfRBJGFF-69" value="" style="html=1;verticalAlign=bottom;endArrow=open;endFill=0;entryX=0.5;entryY=1;entryDx=0;entryDy=0;dashed=1;" edge="1" parent="1" target="JPcZrM7MTuREyfRBJGFF-50">
          <mxGeometry width="80" relative="1" as="geometry">
            <mxPoint x="500" y="370" as="sourcePoint" />
            <mxPoint x="569.9999999999995" y="450" as="targetPoint" />
            <Array as="points">
              <mxPoint x="665" y="370" />
            </Array>
          </mxGeometry>
        </mxCell>
        <mxCell id="JPcZrM7MTuREyfRBJGFF-70" value="" style="html=1;verticalAlign=bottom;endArrow=open;endFill=0;entryX=1;entryY=0.5;entryDx=0;entryDy=0;exitX=0;exitY=0.5;exitDx=0;exitDy=0;" edge="1" parent="1" source="JPcZrM7MTuREyfRBJGFF-19" target="JPcZrM7MTuREyfRBJGFF-50">
          <mxGeometry width="80" relative="1" as="geometry">
            <mxPoint x="589.9999999999995" y="600" as="sourcePoint" />
            <mxPoint x="799.9999999999995" y="600" as="targetPoint" />
          </mxGeometry>
        </mxCell>
        <mxCell id="JPcZrM7MTuREyfRBJGFF-71" value="" style="html=1;verticalAlign=bottom;endArrow=open;endFill=0;entryX=0.5;entryY=1;entryDx=0;entryDy=0;dashed=1;exitX=0.154;exitY=0.003;exitDx=0;exitDy=0;exitPerimeter=0;" edge="1" parent="1" source="JPcZrM7MTuREyfRBJGFF-37" target="JPcZrM7MTuREyfRBJGFF-52">
          <mxGeometry width="80" relative="1" as="geometry">
            <mxPoint x="95" y="600" as="sourcePoint" />
            <mxPoint x="110" y="478" as="targetPoint" />
          </mxGeometry>
        </mxCell>
        <mxCell id="JPcZrM7MTuREyfRBJGFF-72" value="" style="html=1;verticalAlign=bottom;endArrow=open;endFill=0;entryX=0.5;entryY=0;entryDx=0;entryDy=0;exitX=0;exitY=0.5;exitDx=0;exitDy=0;" edge="1" parent="1" source="JPcZrM7MTuREyfRBJGFF-7" target="JPcZrM7MTuREyfRBJGFF-52">
          <mxGeometry width="80" relative="1" as="geometry">
            <mxPoint x="95" y="180" as="sourcePoint" />
            <mxPoint x="70" y="324" as="targetPoint" />
            <Array as="points">
              <mxPoint x="95" y="180" />
            </Array>
          </mxGeometry>
        </mxCell>
        <mxCell id="JPcZrM7MTuREyfRBJGFF-73" value="" style="html=1;verticalAlign=bottom;endArrow=open;endFill=0;entryX=0.908;entryY=-0.043;entryDx=0;entryDy=0;exitX=0.507;exitY=0.995;exitDx=0;exitDy=0;exitPerimeter=0;dashed=1;entryPerimeter=0;" edge="1" parent="1" source="JPcZrM7MTuREyfRBJGFF-15" target="JPcZrM7MTuREyfRBJGFF-49">
          <mxGeometry width="80" relative="1" as="geometry">
            <mxPoint x="359.99999999999955" y="440" as="sourcePoint" />
            <mxPoint x="210.00000000000045" y="454" as="targetPoint" />
          </mxGeometry>
        </mxCell>
        <mxCell id="JPcZrM7MTuREyfRBJGFF-74" value="" style="html=1;verticalAlign=bottom;endArrow=open;endFill=0;entryX=0.5;entryY=1;entryDx=0;entryDy=0;exitX=0.75;exitY=0;exitDx=0;exitDy=0;" edge="1" parent="1" source="JPcZrM7MTuREyfRBJGFF-37" target="JPcZrM7MTuREyfRBJGFF-49">
          <mxGeometry width="80" relative="1" as="geometry">
            <mxPoint x="599.9999999999995" y="656" as="sourcePoint" />
            <mxPoint x="450.00000000000045" y="670" as="targetPoint" />
          </mxGeometry>
        </mxCell>
        <mxCell id="JPcZrM7MTuREyfRBJGFF-75" value="" style="html=1;verticalAlign=bottom;endArrow=open;endFill=0;entryX=0.5;entryY=1;entryDx=0;entryDy=0;exitX=1;exitY=0.5;exitDx=0;exitDy=0;" edge="1" parent="1" source="JPcZrM7MTuREyfRBJGFF-41" target="JPcZrM7MTuREyfRBJGFF-51">
          <mxGeometry width="80" relative="1" as="geometry">
            <mxPoint x="559.9999999999995" y="650" as="sourcePoint" />
            <mxPoint x="410.00000000000045" y="664" as="targetPoint" />
          </mxGeometry>
        </mxCell>
        <mxCell id="JPcZrM7MTuREyfRBJGFF-76" value="" style="html=1;verticalAlign=bottom;endArrow=open;endFill=0;entryX=1;entryY=0.5;entryDx=0;entryDy=0;exitX=0;exitY=0.5;exitDx=0;exitDy=0;" edge="1" parent="1">
          <mxGeometry width="80" relative="1" as="geometry">
            <mxPoint x="1099.9999999999995" y="215" as="sourcePoint" />
            <mxPoint x="730.0000000000005" y="493.9999999999998" as="targetPoint" />
          </mxGeometry>
        </mxCell>
        <mxCell id="JPcZrM7MTuREyfRBJGFF-77" value="" style="html=1;verticalAlign=bottom;endArrow=open;endFill=0;entryX=0.297;entryY=0.986;entryDx=0;entryDy=0;exitX=1;exitY=0.5;exitDx=0;exitDy=0;dashed=1;entryPerimeter=0;" edge="1" parent="1" source="JPcZrM7MTuREyfRBJGFF-40" target="JPcZrM7MTuREyfRBJGFF-51">
          <mxGeometry width="80" relative="1" as="geometry">
            <mxPoint x="709.9999999999995" y="628" as="sourcePoint" />
            <mxPoint x="560.0000000000005" y="642" as="targetPoint" />
          </mxGeometry>
        </mxCell>
        <mxCell id="JPcZrM7MTuREyfRBJGFF-78" value="" style="html=1;verticalAlign=bottom;endArrow=open;endFill=0;entryX=0.5;entryY=0;entryDx=0;entryDy=0;exitX=1;exitY=0.5;exitDx=0;exitDy=0;dashed=1;" edge="1" parent="1" source="JPcZrM7MTuREyfRBJGFF-15" target="JPcZrM7MTuREyfRBJGFF-51">
          <mxGeometry width="80" relative="1" as="geometry">
            <mxPoint x="659.9999999999995" y="422" as="sourcePoint" />
            <mxPoint x="510.00000000000045" y="436" as="targetPoint" />
            <Array as="points">
              <mxPoint x="645" y="401" />
            </Array>
          </mxGeometry>
        </mxCell>
        <mxCell id="JPcZrM7MTuREyfRBJGFF-79" value="" style="html=1;verticalAlign=bottom;endArrow=open;endFill=0;entryX=0.5;entryY=1;entryDx=0;entryDy=0;exitX=0.5;exitY=0;exitDx=0;exitDy=0;" edge="1" parent="1" source="JPcZrM7MTuREyfRBJGFF-31" target="JPcZrM7MTuREyfRBJGFF-53">
          <mxGeometry width="80" relative="1" as="geometry">
            <mxPoint x="1449.9999999999995" y="800" as="sourcePoint" />
            <mxPoint x="1300.0000000000005" y="814" as="targetPoint" />
          </mxGeometry>
        </mxCell>
        <mxCell id="JPcZrM7MTuREyfRBJGFF-80" value="" style="html=1;verticalAlign=bottom;endArrow=open;endFill=0;entryX=0.5;entryY=0;entryDx=0;entryDy=0;exitX=0.462;exitY=1.077;exitDx=0;exitDy=0;exitPerimeter=0;dashed=1;" edge="1" parent="1" source="JPcZrM7MTuREyfRBJGFF-30" target="JPcZrM7MTuREyfRBJGFF-53">
          <mxGeometry width="80" relative="1" as="geometry">
            <mxPoint x="1100" y="650" as="sourcePoint" />
            <mxPoint x="1010.0000000000005" y="674" as="targetPoint" />
          </mxGeometry>
        </mxCell>
        <mxCell id="JPcZrM7MTuREyfRBJGFF-81" value="1" style="endArrow=open;html=1;endSize=12;startArrow=diamondThin;startSize=14;startFill=0;edgeStyle=orthogonalEdgeStyle;align=left;verticalAlign=bottom;dashed=1;fontSize=14;entryX=0;entryY=0.5;entryDx=0;entryDy=0;" edge="1" parent="1" target="JPcZrM7MTuREyfRBJGFF-28">
          <mxGeometry x="-1" y="3" relative="1" as="geometry">
            <mxPoint x="340" y="769.4099999999996" as="sourcePoint" />
            <mxPoint x="860" y="540" as="targetPoint" />
            <Array as="points">
              <mxPoint x="670" y="769" />
              <mxPoint x="670" y="560" />
              <mxPoint x="1040" y="560" />
              <mxPoint x="1040" y="353" />
            </Array>
          </mxGeometry>
        </mxCell>
        <mxCell id="JPcZrM7MTuREyfRBJGFF-82" value="" style="html=1;verticalAlign=bottom;endArrow=none;endFill=0;entryX=-0.004;entryY=0.868;entryDx=0;entryDy=0;startArrow=open;startFill=0;entryPerimeter=0;exitX=0.523;exitY=0.973;exitDx=0;exitDy=0;exitPerimeter=0;" edge="1" parent="1" source="JPcZrM7MTuREyfRBJGFF-58" target="JPcZrM7MTuREyfRBJGFF-32">
          <mxGeometry width="80" relative="1" as="geometry">
            <mxPoint x="1140" y="627" as="sourcePoint" />
            <mxPoint x="1109.9999999999995" y="736.82" as="targetPoint" />
            <Array as="points">
              <mxPoint x="923" y="900" />
            </Array>
          </mxGeometry>
        </mxCell>
        <mxCell id="JPcZrM7MTuREyfRBJGFF-83" value="" style="rounded=1;whiteSpace=wrap;html=1;" vertex="1" parent="1">
          <mxGeometry x="85" y="980" width="535" height="350" as="geometry" />
        </mxCell>
        <mxCell id="JPcZrM7MTuREyfRBJGFF-84" value="&lt;p style=&quot;line-height: 60%&quot;&gt;&lt;/p&gt;&lt;h1&gt;Coupling Ratio&lt;/h1&gt;&lt;p&gt;N(D) = 5 (InputForm [I], OutputForm [O], Timers [T[, Controller [C] and AddEdit Alarm [A])&lt;/p&gt;&lt;p&gt;A, O, T, I&lt;/p&gt;&lt;p&gt;CT, AO, AT, AI, OT, OI, TI&lt;/p&gt;&lt;p&gt;CTA. CTO, CTI,&amp;nbsp; AOT, AOI, ATI, OTI,&lt;/p&gt;&lt;p&gt;CTAO, CTAI, CTOI, AOTI&lt;/p&gt;&lt;p&gt;AOTIC&lt;/p&gt;&lt;p&gt;SD = 23&lt;/p&gt;&lt;p&gt;C(D) =&amp;nbsp;&lt;span&gt;Coupling Ratio = S(D)/N(D) = 23/5 = 4.6&amp;nbsp;&lt;/span&gt;&lt;/p&gt;&lt;br&gt;&lt;p&gt;&lt;/p&gt;" style="text;html=1;strokeColor=none;fillColor=none;spacing=5;spacingTop=-20;whiteSpace=wrap;overflow=hidden;rounded=0;" vertex="1" parent="1">
          <mxGeometry x="110" y="1010" width="500" height="270" as="geometry" />
        </mxCell>
        <mxCell id="JPcZrM7MTuREyfRBJGFF-85" value="F(D) = 3&lt;br&gt;M(D) = 6&lt;br&gt;H(D) = (3+2+2)/(3*6)&lt;br&gt;H(D) = .38888" style="shape=note;strokeWidth=2;fontSize=14;size=20;whiteSpace=wrap;html=1;fillColor=#fff2cc;strokeColor=#d6b656;fontColor=#666600;" vertex="1" parent="1">
          <mxGeometry x="20" y="60" width="110.00000000000001" height="80" as="geometry" />
        </mxCell>
        <mxCell id="JPcZrM7MTuREyfRBJGFF-86" value="F(D) = 0&lt;br&gt;M(D) = 3&lt;br&gt;H(D) = 0/(0*3)&lt;br&gt;H(D) = 1 or UNDEF" style="shape=note;strokeWidth=2;fontSize=14;size=20;whiteSpace=wrap;html=1;fillColor=#fff2cc;strokeColor=#d6b656;fontColor=#666600;" vertex="1" parent="1">
          <mxGeometry x="500" y="260" width="130" height="80" as="geometry" />
        </mxCell>
        <mxCell id="JPcZrM7MTuREyfRBJGFF-87" value="F(D) = 5&lt;br&gt;M(D) = 5&lt;br&gt;H(D) = (3+5+2+2+3)/(5*5)&lt;br&gt;H(D) = .6" style="shape=note;strokeWidth=2;fontSize=14;size=20;whiteSpace=wrap;html=1;fillColor=#fff2cc;strokeColor=#d6b656;fontColor=#666600;" vertex="1" parent="1">
          <mxGeometry x="360" y="840" width="190" height="80" as="geometry" />
        </mxCell>
        <mxCell id="JPcZrM7MTuREyfRBJGFF-88" value="F(D) = 1&lt;br&gt;M(D) = 3&lt;br&gt;H(D) = (2)/(1*3)&lt;br&gt;H(D) = .6666" style="shape=note;strokeWidth=2;fontSize=14;size=20;whiteSpace=wrap;html=1;fillColor=#fff2cc;strokeColor=#d6b656;fontColor=#666600;" vertex="1" parent="1">
          <mxGeometry x="1070" y="1010" width="190" height="80" as="geometry" />
        </mxCell>
        <mxCell id="JPcZrM7MTuREyfRBJGFF-89" value="F(D) = 7&lt;br&gt;M(D) = 6&lt;br&gt;H(D) = (4+5+4+6+3+2+1)/(6*7)&lt;br&gt;H(D) = .595" style="shape=note;strokeWidth=2;fontSize=14;size=20;whiteSpace=wrap;html=1;fillColor=#fff2cc;strokeColor=#d6b656;fontColor=#666600;" vertex="1" parent="1">
          <mxGeometry x="1380" y="55" width="200" height="80" as="geometry" />
        </mxCell>
        <mxCell id="JPcZrM7MTuREyfRBJGFF-90" value="Might change&lt;br&gt;UpdateController &amp;amp; UpdateOutput" style="shape=note;strokeWidth=2;fontSize=14;size=20;whiteSpace=wrap;html=1;fillColor=#fff2cc;strokeColor=#d6b656;fontColor=#666600;" vertex="1" parent="1">
          <mxGeometry x="810" y="230" width="130" height="60" as="geometry" />
        </mxCell>
        <mxCell id="JPcZrM7MTuREyfRBJGFF-91" value="Will change" style="shape=note;strokeWidth=2;fontSize=14;size=20;whiteSpace=wrap;html=1;fillColor=#fff2cc;strokeColor=#d6b656;fontColor=#666600;" vertex="1" parent="1">
          <mxGeometry x="110" y="360" width="90" height="15" as="geometry" />
        </mxCell>
      </root>
    </mxGraphModel>
  </diagram>
</mxfile>
